<?xml version="1.0" encoding="utf-8"?>
<!-- Generator: Adobe Illustrator 23.0.6, SVG Export Plug-In . SVG Version: 6.00 Build 0)  -->
<svg version="1.1" id="Layer_1" xmlns="http://www.w3.org/2000/svg" xmlns:xlink="http://www.w3.org/1999/xlink" x="0px" y="0px"
	 viewBox="0 0 1224 792" style="enable-background:new 0 0 1224 792;" xml:space="preserve">
<style type="text/css">
	.st0{fill:#F2F2F2;}
	.st1{fill:#CDC4DA;stroke:#110B79;stroke-miterlimit:10;}
	.st2{fill:#4FA0CA;stroke:#0B0146;stroke-miterlimit:10;}
	.st3{fill:#B17F4C;}
	.st4{fill:#E5E5E5;}
	.st5{fill:#CCCCCC;}
	.st6{fill:#7C411E;}
	.st7{fill:#B3B3B3;}
	.st8{opacity:0.5;fill:#8F7252;enable-background:new    ;}
	.st9{fill:#4D1F03;}
	.st10{fill:#C2000B;}
	.st11{stroke:#313D2B;stroke-width:7;stroke-miterlimit:10;}
	.st12{fill:#68382F;stroke:#68382F;stroke-miterlimit:10;}
	.st13{fill:#63300F;}
	.st14{fill:#999999;}
	.st15{fill:#FFFFFF;fill-opacity:0;}
	.st16{fill:#1A1A1A;}
	.st17{fill:#E5E5E5;stroke:#B3B3B3;stroke-width:0.25;stroke-miterlimit:10;}
	.st18{fill:#110B79;}
	.st19{fill:#27248D;}
	.st20{fill:#0B0146;}
	.st21{fill:#FEA621;stroke:#FEA621;stroke-miterlimit:10;}
	.st22{fill:#110B79;stroke:#0B0146;stroke-miterlimit:10;}
	.st23{fill:#C2000B;stroke:#CCCCCC;stroke-width:0.5;stroke-miterlimit:10;}
	.st24{fill:#F2F2F2;stroke:#CCCCCC;stroke-width:0.5;stroke-miterlimit:10;}
</style>
<title>clothing-1</title>
<g id="background">
	<rect id="back" class="st0" width="1224" height="792"/>
	<path id="body-box" class="st1" d="M668.1,24.4h469.4c6.6,0,12,5.4,12,12v725.2c0,6.6-5.4,12-12,12H668.1c-6.6,0-12-5.4-12-12V36.4
		C656.1,29.7,661.5,24.4,668.1,24.4z"/>
	<path id="shirt-box" class="st2" d="M310.2,28.4h259c6.6,0,12,5.4,12,12v229.4c0,6.6-5.4,12-12,12h-259c-6.6,0-12-5.4-12-12V40.4
		C298.2,33.7,303.6,28.4,310.2,28.4z"/>
	<path id="shorts-box" class="st2" d="M79.8,340.6h266.3c6.6,0,12,5.4,12,12v172.6c0,6.6-5.4,12-12,12H79.8c-6.6,0-12-5.4-12-12
		V352.6C67.8,346,73.2,340.6,79.8,340.6z"/>
	<path id="shoe-box" class="st2" d="M310.2,620h268.3c6.6,0,12,5.4,12,12v93.8c0,6.6-5.4,12-12,12H310.2c-6.6,0-12-5.4-12-12V632
		C298.2,625.3,303.6,620,310.2,620z"/>
</g>
<g id="body-image">
	<g id="body">
		<g id="legs">
			<path id="left-leg" class="st3" d="M967.2,606.7c15.4,2.3,31.1,1.7,46.2-1.9l1.8-0.4c0.4,14.8,0.2,26.9,0,35
				c-0.8,30.5-3.4,43-0.4,63.6c1.4,9.3,3.6,18.5,6.7,27.4c7.8-0.6,15.6-0.4,23.3,0.6c14.6,2,18.2,5.8,19.3,7
				c0.7,0.8,5.1,5.8,3.9,10.5c-1.5,6-24,13.7-53.2,12.7c-21-0.7-32.8-1.2-40-9.8c-6-7.2-3.5-14-2.7-50.8c0,0,0.4-20.4-0.1-39.8
				C971.5,642.8,969.9,624.7,967.2,606.7z"/>
			<path id="left-sock" class="st4" d="M969.2,703.1c15.5,4.1,31.8,3.2,46.7-2.6l5,28.3c7.7-1,15.6-1,23.3,0
				c10.6,1.3,18.5,2.4,22.4,8.5c0.3,0.5,3.8,5.9,2.1,11.1c-3.6,11.1-27.4,12.5-51.9,13.8c-39.8,2.3-45.1-5.5-46.3-7.6
				c-1.7-3-2.1-7.1-2.8-13.1c-0.6-5.2-0.4-9,0.1-17.2C968.3,715.8,968.8,708.6,969.2,703.1z"/>
			<g id="stitch">
				<path d="M993.3,762.3c-0.3-1.6-0.7-3.3-1.2-4.8l0.5-0.1C993,758.9,993.2,760.6,993.3,762.3z"/>
				<path d="M990.6,753.8c-1-2-2.2-3.8-3.6-5.5l0.8-0.6c1.4,1.8,2.6,3.7,3.5,5.8L990.6,753.8z"/>
				<path d="M982.3,743.8c-1.1-0.8-2.2-1.5-3.3-2.2l0.4-0.8c1.2,0.6,2.4,1.3,3.5,2.1L982.3,743.8z"/>
				<path d="M972.9,739c-1.6-0.5-3.2-0.9-4.8-1.2c1.7,0.1,3.4,0.3,5,0.7L972.9,739z"/>
			</g>
			<g id="stitch-2">
				<path d="M1050,759c-0.6-1.6-1.1-3.2-1.4-4.8l0.6-0.1c0.1,0.8,0.2,1.6,0.3,2.5S1049.8,758.2,1050,759z"/>
				<path d="M1048.2,751.3c-0.1-1.6,0-3.3,0.2-4.9l1,0.1c-0.2,1.6-0.4,3.2-0.3,4.8L1048.2,751.3z"/>
				<path d="M1049.5,741.5c0.4-0.9,0.7-1.8,1.1-2.8l0.8,0.4c-0.3,0.9-0.7,1.8-1,2.7L1049.5,741.5z"/>
				<path d="M1053.2,734.5c0.5-0.7,1-1.3,1.6-2c0.6-0.6,1.2-1.2,1.8-1.8c-0.5,0.7-1,1.3-1.5,2s-0.9,1.4-1.4,2.1L1053.2,734.5z"/>
			</g>
			<path class="st5" d="M1017.2,708.5c-3.8,1.7-7.7,3-11.8,3.9c-8.1,1.8-16.5,2.2-24.7,1c-2.1-0.3-4.1-0.7-6.1-1.2s-4-1.1-5.9-1.8
				c4,1,8,1.7,12.1,2.2s8.2,0.6,12.2,0.4c4.1-0.1,8.2-0.6,12.2-1.4C1009.3,710.8,1013.3,709.8,1017.2,708.5z"/>
			<path id="right-leg" class="st3" d="M915,606.2l-43.5-1.2c-0.3,6-0.8,15.7-0.8,27.6c0,32.5,3.3,44.5,0.5,66.2
				c-1.4,10.9-4,21.7-7.8,32.1c-8.2-0.6-16.5-0.8-24.8-0.3c0,0-13.6,0.8-19.1,6.1c-0.2,0.2-0.3,0.3-0.4,0.4
				c-0.8,0.8-5.3,5.7-4.2,10.4c1.4,6.1,23.8,14.4,52.8,14.1c19.9-0.2,30.6-0.3,38.3-8c6.1-6.1,5.9-12.7,5.7-53
				c-0.2-34.4-0.3-49.2,0.8-66.8C913.3,621.9,914.3,612.3,915,606.2z"/>
			<path id="right-sock" class="st4" d="M914.2,703.1c-15.4,4.2-31.8,3.3-46.7-2.5l-5,28.3c-7.7-1-15.6-1-23.3,0
				c-10.6,1.3-18.5,2.4-22.4,8.5c-0.3,0.5-3.8,5.9-2.1,11.1c3.6,11.1,27.5,12.4,52,13.7c39.8,2.2,45.1-5.5,46.3-7.7
				c1.7-3,2.1-7.1,2.7-13.1c0.6-5.2,0.4-9-0.2-17.2C915.1,715.9,914.6,708.7,914.2,703.1z"/>
			<g id="stitch-3">
				<path d="M890.2,762.4c0.1-1.7,0.3-3.4,0.7-5l0.5,0.1C890.9,759.1,890.5,760.7,890.2,762.4z"/>
				<path d="M892.3,753.6c0.9-2.1,2-4,3.5-5.8l0.8,0.6c-1.4,1.7-2.6,3.5-3.5,5.5L892.3,753.6z"/>
				<path d="M900.6,743.1c1.1-0.8,2.3-1.5,3.5-2.2l0.4,0.8c-1.1,0.7-2.2,1.4-3.3,2.2L900.6,743.1z"/>
				<path d="M910.4,738.5c1.6-0.4,3.3-0.6,5-0.7c-1.6,0.3-3.3,0.7-4.8,1.2L910.4,738.5z"/>
			</g>
			<g id="stitch-4">
				<path d="M833.5,759.3c0.2-0.8,0.4-1.6,0.5-2.5s0.2-1.6,0.3-2.5l0.6,0.1C834.7,756.1,834.2,757.7,833.5,759.3z"/>
				<path d="M834.5,751.5c0-1.6-0.1-3.2-0.4-4.8l1-0.1c0.2,1.6,0.3,3.3,0.2,4.9L834.5,751.5z"/>
				<path d="M833.1,742c-0.3-0.9-0.7-1.8-1-2.7l0.8-0.4c0.4,0.9,0.8,1.8,1.1,2.8L833.1,742z"/>
				<path d="M829.8,735.1c-0.5-0.7-0.9-1.4-1.4-2.1s-1-1.3-1.5-2c0.6,0.6,1.2,1.1,1.8,1.8c0.6,0.6,1.1,1.3,1.6,2L829.8,735.1z"/>
			</g>
			<path class="st5" d="M866.3,708.6c3.9,1.3,7.9,2.3,11.9,3.1c8.1,1.5,16.3,1.8,24.4,0.9c4.1-0.5,8.1-1.2,12.1-2.2
				c-1.9,0.7-3.9,1.3-5.9,1.8s-4,0.9-6.1,1.2c-8.2,1.2-16.6,0.9-24.7-0.9C874,711.6,870,710.3,866.3,708.6z"/>
			<g id="knee">
				<path class="st6" d="M873.7,630.8c1.2,1.4,2.6,2.6,4.1,3.6c1.5,0.9,3.2,1.7,4.9,2.1c1.8,0.4,3.6,0.6,5.4,0.5
					c1.8-0.1,3.7-0.3,5.4-0.8c-3.4,1.7-7.3,2.2-11,1.2c-1.9-0.5-3.6-1.3-5.1-2.4C875.9,633.9,874.6,632.4,873.7,630.8z"/>
			</g>
			<g id="knee-2">
				<path class="st6" d="M992.3,640.1c1.9,0.7,4,1,6,1s4-0.4,5.8-1.2c1.9-0.8,3.6-1.8,5.1-3.2s2.9-2.9,4-4.6c-0.8,1.9-2,3.7-3.5,5.2
					s-3.3,2.7-5.2,3.5c-2,0.8-4.1,1.2-6.2,1.1C996.2,641.8,994.2,641.2,992.3,640.1z"/>
			</g>
		</g>
		<path id="shorts_x5F_base" class="st7" d="M1019.8,478.6c-26.7,3.6-53.6,5.5-80.5,5.7c-29.8,0.2-59.5-1.7-89.1-5.7
			c-0.7,14.2-0.8,29.2-0.3,45.1c1,29.7,4.3,59.2,10,88.4c7.2,0.7,14.8,1.1,22.7,1.3c11.4,0.3,22.8-0.1,34.1-1
			c4.1-23.1,11-45.6,20.7-67c5.8,9.8,10.8,20,15,30.6c4.6,11.8,8.2,24,10.6,36.4c7.9,0.5,16.2,0.8,25,0.8c11.6,0,22.4-0.5,32.5-1.2
			c1.2-27.8,1.7-57,1.1-87.4C1021.2,508.9,1020.7,493.6,1019.8,478.6z"/>
		<g id="face">
			<ellipse class="st3" cx="936.8" cy="186" rx="117.4" ry="88.3"/>
			<circle class="st3" cx="1054.2" cy="185.6" r="21.4"/>
			<circle class="st3" cx="819.3" cy="185.6" r="21.4"/>
			<path class="st3" d="M936.8,256.2L936.8,256.2c9.6,0,17.4,7.8,17.4,17.4V290c0,9.6-7.8,17.4-17.4,17.4l0,0
				c-9.6,0-17.4-7.8-17.4-17.4v-16.4C919.4,264,927.2,256.2,936.8,256.2z"/>
		</g>
		<ellipse id="cheeks" class="st8" cx="998.7" cy="203.6" rx="10.7" ry="3.9"/>
		<ellipse id="cheeks-2" class="st8" cx="870.2" cy="203.6" rx="10.7" ry="3.9"/>
		<path id="right-arm" class="st3" d="M897.4,299.6c-9.2-0.2-18.4,1.1-27.2,3.8c-7.6,2.2-14.7,5.6-21.1,10.2
			c-8.2,6-9.7,10.3-17.1,18c-7.3,7.5-15.7,13.8-25,18.6l0,0c-3.7-1.7-9.4-4.1-16.6-6.6c-13.6-4.8-19.4-5.4-29.2-9.4
			c-7-2.9-13.6-6.6-19.8-11c-1.8-1.5-3.4-3.3-4.7-5.2c-0.8-1.2-1.6-2.4-2.2-3.8c-0.6-1.4-1.3-3.3-2.2-5.4c-0.4-1.1-0.9-2.2-1.5-3.3
			c-0.7-1.3-1.7-2.5-2.8-3.5c-1.1-1.1-2.5-1.8-4.1-2s-3.7,0.3-4,1.2c-0.2,0.6,0.3,1,1.2,2.2c1.2,1.6,2.2,3.3,3,5.2
			c0.4,1.4,0.5,2.8,0.1,4.2c-3.6-2.2-6.4-4.1-8.3-5.4c-7.2-5.1-9.7-7-9.7-7c-4.2-3.3-5.8-5-8.3-4.8c-1.5,0.1-3.2,0.9-3.6,2.1
			c-0.5,1.6,1.8,3.4,4,5.1c7.8,6.1,12.7,10.3,12.6,10.4s-5.3-2.3-11.5-7.1c-5.4-4.2-8.3-7.5-10.9-6.8c-1,0.3-1.7,1-2,2
			c-0.6,2.2,2.8,4.3,8.7,8.8c5.1,4,9.2,7.5,9,7.7s-5.2-2.9-11-7.2c-5-3.8-8.1-6.8-10.2-6c-0.7,0.3-1.2,0.9-1.4,1.7
			c-0.4,1.2,0.2,2.5,2.2,4.7c1.7,1.8,3.6,3.4,5.6,4.8c5.7,3.9,9.6,7.8,9.4,7.9s-5.1-2.1-9.9-6c-1.7-1.4-3.4-3-5.5-2.8
			c-0.9,0-1.8,0.5-2.3,1.3c-0.7,1.5,2.1,3.8,4.8,5.9c12.1,9.6,9.4,8.1,12.8,10.4c6.1,4.1,9.1,6.1,14.1,7.9s12.6,3.6,12.6,3.6
			s19.5,10.2,35.5,18.5c39.6,20.4,52.1,26,65.3,22.1c0.5-0.1,0.8-0.3,1.4-0.4c14.9-5,25-15.1,44.5-35.1l14.6-15
			C888.3,332.7,898.4,326.3,897.4,299.6z"/>
		<path id="left-arm" class="st3" d="M985.5,341c1.3,1.8,2.5,1.8,13.1,9.3c0,0,5,3.4,15.9,11.2c14.6,10.5,24.1,17.3,28.8,28.7
			c0.8,2,2.4,11.5,2.3,30.6c0,7.6-0.9,15.1-2.7,22.4c-0.7,2.2-1.7,4.3-3,6.3c-0.8,1.2-1.7,2.4-2.7,3.5l-4.2,4.1
			c-0.9,0.8-1.7,1.7-2.5,2.7c-1,1.2-1.7,2.5-2.1,4c-0.6,1.4-0.7,3-0.3,4.5c0.4,1.5,1.6,3.3,2.7,3.3c0.6,0,0.8-0.7,1.6-1.9
			c1-1.7,2.2-3.3,3.7-4.7c1.1-0.9,2.4-1.5,3.9-1.7c-0.7,4.1-1.4,7.5-1.9,9.8c-2,8.5-2.9,11.6-2.9,11.6c-1.5,5.1-2.4,7.3-1.3,9.5
			c0.7,1.4,2.1,2.7,3.3,2.6c1.7-0.1,2.4-2.9,3.2-5.6c2.7-9.5,4.8-15.7,4.9-15.6s-0.2,5.7-2.3,13.4c-1.8,6.6-3.8,10.5-2.2,12.6
			c0.6,0.8,1.6,1.2,2.6,1.1c2.3-0.3,2.9-4.2,4.9-11.4c1.7-6.2,3.6-11.3,3.7-11.2s-0.7,5.9-2.6,12.9c-1.6,6.1-3.2,10.1-1.7,11.7
			c0.6,0.5,1.3,0.8,2.1,0.7c1.3-0.1,2.3-1.2,3.5-3.8c1-2.2,1.8-4.6,2.3-7c1.4-6.7,3.6-11.8,3.8-11.7s0,5.5-1.9,11.4
			c-0.7,2.1-1.5,4.3-0.5,6.1c0.4,0.8,1.1,1.5,2,1.7c1.7,0.1,2.7-3.4,3.7-6.6c4.4-14.8,4-11.8,4.8-15.8c1.5-7.2,2.2-10.7,2-16
			s-1.4-13-1.4-13c2.4-13.2,3.6-26.5,3.7-39.9c0.1-21-2.9-30.5-3.9-33.7c-2.3-6.9-5.6-13.5-9.6-19.6c-17.3-26.8-52.2-51.3-60-56.6
			C981,326.4,982.4,336.5,985.5,341z"/>
		<g id="hair">
			<path class="st9" d="M819.2,163.1c0.1,0,0.3,0,1,0s0.8,0.1,1.5,0.2c0.2,0,0.6,0.1,1,0.1l0.4-0.3l9-7.8c4.6-3.9,13.5-6,26.3-11.5
				c11.3-4.8,22.4-10.8,22.4-10.8s31.5,4.9,57.8,7.2c53.7,4.7,75.5-2.3,99.8,15.4c3.3,2.4,6.4,5.1,9.3,8.1c0.9-0.2,1.8-0.4,2.8-0.5
				c0.5-0.1,1-0.1,1.5-0.1c-0.7-5.9-2.3-11.7-4.7-17.2c-6.7-15.6-18.1-24.2-25-29.3C989,92,942.7,89.3,940.1,89.2
				c-16.9-0.8-54.1,0.1-85.9,20.4c-18.7,12-25.7,24.3-27.7,28.3C820.3,149.5,818.4,162.7,819.2,163.1z"/>
			<path class="st9" d="M821.4,205.6c1.1,3.3,2.4,6.5,3.9,9.6c1.5,3,3.1,5.9,5,8.7l0,0c2.1,2.9,5,7,5,7l0,0l-9.1-10.3
				c-3-3.6-5.4-7.6-7.1-11.9c-0.4-1-0.7-1.9-1-2.9c0.5,0,1,0,1.5-0.1S820.9,205.7,821.4,205.6z"/>
			<path class="st9" d="M1049.7,205.6c-1.3,3.9-2.9,7.7-4.8,11.4c-1.5,2.9-3,5.2-3.6,6.1c-1.6,2.5-6.4,8.9-6.4,8.9
				c0.1-0.2,0.3-0.4,0.4-0.6c-0.4,0.4-0.8,0.8-1.1,1.3c6.9-5.9,12.5-13.1,16.4-21.3c0.8-1.8,1.5-3.6,2.1-5.5c-0.4,0-0.9,0-1.4-0.1
				S1050.2,205.6,1049.7,205.6z"/>
			<path class="st9" d="M976.7,68.2c1,8.6-2.3,18.8-9.6,24.8c-6.2,5-15.2,4.8-33.1,4.1c-18.3-0.7-27.5-1.1-33.5-6.8
				c-6.7-6.4-9.3-16.4-7.9-24.8c2.8-17.4,23-28.3,39.7-28.9C952.3,36,974.6,49.7,976.7,68.2z"/>
			<path class="st10" d="M901.8,91.4c5.3-1.5,10.7-2.6,16.2-3.2c11-1.2,22.1-1,33.1,0.8c5.5,0.8,10.9,2.2,16.1,4
				c-5.5-0.2-11-0.6-16.4-0.9s-10.8-0.5-16.3-0.6s-10.8-0.2-16.3-0.2S907.3,91.5,901.8,91.4z"/>
			<path class="st9" d="M822.4,163.3"/>
			<path class="st9" d="M811.7,214.7c0.4-0.5,0.7-1.1,1.1-1.5l1.1-1.5l1.2-1.6l1.1-1.6c1.4-2.2,2.7-4.4,3.7-6.8
				c2.2-4.6,2.9-9.7,2.3-14.8c-0.4-2.5-1.1-5-1.8-7.5c-0.7-2.6-1.1-5.3-1.2-8c-0.1-2.8,0.5-5.6,1.5-8.2c0.3-0.7,0.6-1.3,0.9-1.9
				c0.3-0.6,0.7-1.2,1.1-1.8c0.8-1.1,1.7-2.2,2.7-3.2l3.3-3.4l-0.5,4.8c-0.5,5-1.4,10-2.6,14.9c-1.3,4.9-3,9.6-5,14.2
				c-2,4.5-3.7,9.1-5.1,13.7c-0.7,2.3-1.3,4.7-1.9,7.1c-0.3,1.2-0.6,2.4-0.8,3.6l-0.4,1.8C812.1,213.6,811.8,214,811.7,214.7z
				 M811.5,215.1c-0.1-0.7-0.1-1.4-0.1-2.1v-1.9c0-1.3,0.1-2.5,0.2-3.8c0.2-2.5,0.5-5,1-7.5c0.9-5,2.3-9.8,4.1-14.5
				c1.7-4.7,3.5-9.2,4.9-13.8c1.4-4.7,2.5-9.4,3.2-14.2l2.8,1.4c-3.7,3.3-5.8,7.9-5.9,12.8c0,2.5,0.3,5,0.8,7.5s1.2,5.1,1.5,7.8
				c0.5,5.4-0.6,10.8-3.2,15.6c-1.2,2.4-2.6,4.6-4.2,6.7l-1.2,1.6l-1.2,1.5l-0.6,0.8l-0.7,0.8L811.5,215.1z"/>
			<path class="st9" d="M1040.2,230.7c0-0.2-0.1-0.3-0.1-0.4c0-0.1,0-0.3,0-0.4l0.1-1.1l0.2-2.2l0.5-4.3c0.4-2.9,0.8-5.7,1.3-8.6
				s1-5.7,1.6-8.5c0.3-1.4,0.6-2.8,1-4.3c0.3-1.4,0.8-2.8,1.1-4.1v0.2l0.2-1.4l0.1-0.7c0-0.2,0-0.4,0-0.6c0-0.8-0.1-1.6-0.2-2.4
				c-0.3-1.7-0.7-3.4-1.2-5.2c-0.9-3.5-1.8-7-2.5-10.6c-0.3-1.8-0.6-3.7-0.7-5.6c-0.1-1.9-0.1-3.8,0.1-5.7c0.1-1.9,0.5-3.9,1.1-5.7
				c0.2-0.5,0.4-1,0.6-1.5c0.3-0.7,0.9-1.4,1.6-1.8c0.3-0.2,0.7-0.3,1.1-0.4c0.4-0.1,0.8,0,1.2,0.1c0.5,0.2,1,0.5,1.3,0.8
				c0.5,0.4,0.8,1,1.2,1.5l0.2,0.3l0.1,0.4c1.1,6.3,1.3,12.7,0.6,19c-0.4,3.2-1,6.3-1.9,9.4c-0.9,3-2,6-3.2,8.9
				c-1.2,2.7-2.2,5.5-3,8.4c-0.8,2.8-1.4,5.8-1.8,8.7c-0.4,3-0.5,6-0.5,9c0,1.5,0.1,3,0.2,4.5c0,0.8,0.1,1.5,0.2,2.3
				c0,0.3,0,0.7,0,1C1040.3,230,1040.2,230.4,1040.2,230.7z M1040.2,231.2c-0.1-0.3-0.3-0.7-0.5-1.1c-0.2-0.4-0.4-0.9-0.5-1.3
				c-0.2-0.7-0.4-1.5-0.6-2.2c-0.4-1.5-0.7-3-1-4.6c-1.1-6.3-0.9-12.7,0.3-18.9c0.7-3.1,1.5-6.1,2.7-9.1c1-2.9,2-5.7,2.8-8.5
				s1.4-5.7,1.9-8.6c1-5.8,1.1-11.8,0.3-17.7l0.2,0.7c-0.1-0.2-0.3-0.5-0.4-0.7c0,0,0,0,0.2,0.1c0.2,0,0.4,0,0.5,0
				c0.2,0,0.3-0.1,0.4-0.1c0.3-0.2,0,0-0.1,0.2c-0.2,0.3-0.3,0.6-0.4,0.9c-0.5,1.6-0.9,3.2-1.1,4.9s-0.3,3.4-0.3,5.1
				c0.1,1.7,0.2,3.5,0.5,5.2c0.5,3.5,1.3,7,2.1,10.5c0.4,1.8,0.8,3.6,1,5.4c0.1,1,0.2,2,0.2,3c0,0.2,0,0.5-0.1,0.7l-0.1,0.6
				l-0.2,1.3v0.2c-0.4,1.5-0.9,2.8-1.3,4.2s-0.8,2.7-1.2,4.1c-0.7,2.8-1.4,5.6-2,8.4s-1.2,5.6-1.7,8.5l-0.8,4.2l-0.4,2.1l-0.2,1.1
				c0,0.2-0.1,0.5-0.1,0.7C1040.4,230.8,1040.3,231,1040.2,231.2L1040.2,231.2z"/>
		</g>
		<circle id="eye" class="st11" cx="982.8" cy="178.6" r="15.9"/>
		<circle id="eye-2" class="st0" cx="977.5" cy="175.9" r="5.3"/>
		<circle id="eye-3" class="st11" cx="886.5" cy="178.6" r="15.9"/>
		<circle id="eye-4" class="st0" cx="881.2" cy="175.9" r="5.3"/>
		<ellipse id="mouth" class="st12" cx="937.5" cy="235.1" rx="7.2" ry="11.1"/>
		<g id="eyebrow">
			<path class="st13" d="M870.1,157.3c2.3-1.6,4.7-2.9,7.2-3.9c2.6-1,5.3-1.8,8-2.2c2.8-0.6,5.6-0.7,8.4-0.3
				c2.8,0.4,5.5,1.5,7.8,3.1l-0.1,0.3c-2.8-0.1-5.4-0.3-8-0.4s-5.2-0.5-7.8-0.3c-2.6,0.1-5.3,0.5-7.8,1.2c-2.6,0.7-5.1,1.6-7.5,2.7
				L870.1,157.3z"/>
		</g>
		<g id="eyebrow-2">
			<path class="st13" d="M998.2,157.6c-2.4-1.2-4.9-2.1-7.5-2.7c-2.6-0.7-5.2-1.1-7.8-1.2c-2.6-0.2-5.2,0.3-7.8,0.3s-5.2,0.3-8,0.4
				l-0.1-0.3c2.3-1.6,5-2.6,7.8-3.1c2.8-0.4,5.6-0.3,8.4,0.3c2.7,0.4,5.4,1.1,8,2.2c2.5,1,5,2.3,7.2,3.9L998.2,157.6z"/>
		</g>
		<path id="shirt_x5F_base" class="st14" d="M1017.8,415.1L1017.8,415.1l-1.4-52.5l-4.6-5.2c-12.2-14.7-15.3-35-8.2-52.7
			c-14.2-11.6-31.9-18.3-50.3-19c-3.4,7-10.5,11.6-18.3,11.7c-10.8,0-17.2-9.7-17.7-10.4c-17.5,0.2-34.5,5.6-48.9,15.5
			c7.4,18,4.9,38.5-6.6,54.1c-2.5,2.5-5,5-7.5,7.5c-0.5,17.6-1.1,35.3-1.6,52.9l-5.2,67.9c22.7,1.8,47.3,3,73.3,3.4
			c36.8,0.5,70.8-1,101.3-3.4L1017.8,415.1z"/>
	</g>
</g>
<g id="clothes-target-areas">
	<path id="shirt_target" class="st15" d="M859.5,281.7h150.6c6.6,0,12,5.4,12,12v178.6c0,6.6-5.4,12-12,12H859.5
		c-6.6,0-12-5.4-12-12V293.7C847.5,287.1,852.9,281.7,859.5,281.7z"/>
	<path id="shorts_target" class="st15" d="M859.5,487.5h156.3c6.6,0,12,5.4,12,12v102c0,6.6-5.4,12-12,12H859.5c-6.6,0-12-5.4-12-12
		v-102C847.5,492.9,852.9,487.5,859.5,487.5z"/>
	<path id="shoes_target" class="st15" d="M817,700.5h246.6c6.6,0,12,5.4,12,12v42.1c0,6.6-5.4,12-12,12H817c-6.6,0-12-5.4-12-12
		v-42.1C805,705.9,810.4,700.5,817,700.5z"/>
</g>
<g id="clothes">
	<g id="shoes">
		<path id="right-shoe" class="st16" d="M371.1,675.7c-0.8,0.5-1.6,1.2-2.1,2c-8.7-0.9-17.6-0.9-26.3,0c-12,1.5-20.9,2.8-25.3,9.7
			c-0.4,0.6-4.3,6.6-2.4,12.6c4.1,12.6,31,14.1,58.7,15.6c45,2.5,51-6.3,52.4-8.8c1.9-3.4,2.4-8.1,3.1-14.8
			c0.4-5.8,0.4-11.7-0.1-17.5c0-0.6-0.2-1.1-0.6-1.5c-0.8-0.5-2,0-2.3,0.1c-3.2,1.2-33.7,7.1-46.5,2.8
			C378.5,675.3,374.4,673.8,371.1,675.7z"/>
		<g id="ribbon">
			<path id="bow" class="st17" d="M359.5,676.4c0.4,2.8,5.4,5,12.3,4.9c1.6,6.7,5.3,10.7,8.2,10.3c2.2-0.3,3.8-3.1,4.7-4.5
				s3-5.1,1.7-7.2c0,0-1-1.7-12.7-1.2l0,0c-2.2-7.2-5.4-11.9-7.9-11.6c-1.2,0.2-2.2,1.5-3.6,3.3S359.2,674.5,359.5,676.4z"/>
			<g id="crease">
				<path class="st7" d="M369.1,674c1.4,0.8,2.4,2.2,2.7,3.8C371.2,676.3,370.2,675.1,369.1,674z"/>
			</g>
			<g id="crease-2">
				<path class="st7" d="M366.9,677c0.7,0.5,1.4,1,2.1,1.4s1.5,0.8,2.2,1.1C369.5,679.2,368,678.3,366.9,677z"/>
			</g>
			<g id="crease-3">
				<path class="st7" d="M373.6,681.7c0.4,0.7,0.9,1.3,1.4,1.9c0.5,0.6,1.1,1.1,1.8,1.6C375.3,684.5,374.1,683.2,373.6,681.7z"/>
			</g>
			<g id="crease-4">
				<path class="st7" d="M374.7,680.4c1.9-0.2,3.7,0.7,4.6,2.3c-0.6-0.7-1.3-1.2-2.1-1.6C376.5,680.6,375.6,680.4,374.7,680.4z"/>
			</g>
			
				<ellipse id="ribbon-knot" transform="matrix(0.5111 -0.8595 0.8595 0.5111 -402.2783 652.9095)" class="st17" cx="372.8" cy="680.1" rx="5.1" ry="2.2"/>
		</g>
		<path id="left-shoe" class="st16" d="M536.4,675.7c0.8,0.5,1.6,1.2,2.1,2c8.8-0.9,17.7-0.9,26.5,0c12.1,1.5,21,2.8,25.5,9.7
			c0.4,0.6,4.3,6.7,2.4,12.6c-4.1,12.6-31.2,14.1-59.1,15.6c-45.3,2.5-51.3-6.3-52.7-8.8c-1.9-3.4-2.4-8.1-3.1-14.8
			c-0.4-5.8-0.4-11.7,0.1-17.5c0-0.6,0.2-1.1,0.6-1.5c0.8-0.5,2,0,2.3,0.1c3.2,1.2,33.9,7.1,46.8,2.8
			C529,675.3,533.2,673.8,536.4,675.7z"/>
		<g id="ribbon-2">
			<path id="bow-2" class="st17" d="M548.4,676.4c-0.4,2.8-5.4,5-12.3,4.9c-1.6,6.7-5.3,10.7-8.2,10.3c-2.2-0.3-3.8-3.1-4.7-4.5
				s-3-5.1-1.7-7.2c0,0,1-1.7,12.7-1.2l0,0c2.2-7.2,5.4-11.9,7.9-11.6c1.2,0.2,2.2,1.5,3.6,3.3S548.7,674.5,548.4,676.4z"/>
			<g id="crease-5">
				<path class="st7" d="M538.8,674c-0.6,0.5-1.1,1.1-1.5,1.7c-0.5,0.6-0.8,1.3-1.2,2C536.4,676.2,537.4,674.8,538.8,674z"/>
			</g>
			<g id="crease-6">
				<path class="st7" d="M541,677c-1.1,1.3-2.6,2.2-4.3,2.5c0.8-0.3,1.5-0.7,2.2-1.1C539.7,678,540.3,677.5,541,677z"/>
			</g>
			<g id="crease-7">
				<path class="st7" d="M534.3,681.7c-0.5,1.5-1.7,2.8-3.2,3.5c0.6-0.5,1.2-1,1.7-1.6C533.4,683,533.9,682.3,534.3,681.7z"/>
			</g>
			<g id="crease-8">
				<path class="st7" d="M533.2,680.4c-0.9,0.1-1.7,0.3-2.5,0.7s-1.5,0.9-2.1,1.6C529.5,681,531.3,680.1,533.2,680.4z"/>
			</g>
			
				<ellipse id="ribbon-knot-2" transform="matrix(0.8595 -0.5111 0.5111 0.8595 -272.3731 369.0025)" class="st17" cx="535.1" cy="680" rx="2.2" ry="5.1"/>
		</g>
	</g>
	<g id="shorts">
		<path id="shorts-base" class="st18" d="M299.8,364.8c-27,2-56.1,3.2-87,3.3c-34.5,0.1-66.8-1.1-96.5-3.3c-2.9,21-5.1,44-6.2,68.8
			c-1,23.1-0.9,44.7,0,64.6c30.1,6.5,61.3,6.5,91.5,0c-1.3-21.2,1-42.5,6.8-63h2.1c3.8,10.8,6.6,22,8.3,33.3
			c1.5,9.7,2.2,19.5,2.1,29.4c28.3,9.6,58.9,9.7,87.3,0.3c1.2-21.4,1.2-42.8,0-64.2C306.8,410.7,304,387.6,299.8,364.8z"/>
		<path id="belt" class="st19" d="M299.8,364.8c-27.4,2-56.5,3.2-87.3,3.3c-34.2,0.1-66.4-1.1-96.3-3.3c-0.3,3.1-0.6,6.3-1,9.5
			c-0.1,1.2-0.3,2.4-0.4,3.6h0.5c49.8,2.5,65.8,2.7,65.8,2.7c15,0.3,27.4,0.1,52.1-0.4c17.7-0.4,41.1-1,69-2.3
			c-0.2-1.2-0.4-2.4-0.6-3.6C300.9,371,300.4,367.9,299.8,364.8z"/>
		<g id="pocket">
			<path class="st20" d="M146.4,385.1c-0.8,3.6-2.2,7-4.1,10.1c-1.9,3.1-4.4,5.9-7.2,8.3c-2.9,2.3-6.1,4.2-9.5,5.5
				c-3.4,1.3-7,2.1-10.7,2.3c1.8-0.3,3.6-0.7,5.3-1.2c1.7-0.5,3.4-1.1,5.1-1.8c3.3-1.4,6.4-3.3,9.2-5.5c2.8-2.3,5.2-5,7.2-7.9
				c1-1.5,1.9-3.1,2.7-4.7C145.1,388.5,145.8,386.8,146.4,385.1z"/>
		</g>
		<g id="pocket-2">
			<path class="st18" d="M270.2,382.9c1.5,5.5,4.3,10.6,8.2,14.9c6.2,6.4,14.4,10.5,23.3,11.3"/>
			<path class="st20" d="M270.2,382.9c0.6,1.7,1.3,3.4,2,5c0.8,1.6,1.7,3.2,2.7,4.7c2,3,4.4,5.7,7.2,7.9c2.8,2.3,5.9,4.1,9.2,5.5
				c1.7,0.7,3.4,1.3,5.1,1.8s3.5,0.9,5.3,1.2c-7.4-0.4-14.5-3.1-20.2-7.7c-2.8-2.4-5.3-5.2-7.2-8.3
				C272.3,389.9,271,386.5,270.2,382.9z"/>
		</g>
		<g id="leg-stitch">
			<path class="st18" d="M220.9,494.4c28.6,8.4,58.9,8.4,87.5-0.1"/>
			<path class="st20" d="M220.9,494.4c7.1,1.9,14.4,3.3,21.7,4.3c3.6,0.5,7.3,0.9,11,1.1s7.4,0.4,11,0.3c7.4,0,14.7-0.5,22-1.5
				s14.6-2.5,21.7-4.4c-3.5,1.1-7.1,2.1-10.7,3s-7.2,1.5-10.9,2.1c-14.7,2.3-29.6,2.3-44.3,0c-3.7-0.6-7.3-1.3-10.9-2.1
				C228,496.5,224.4,495.6,220.9,494.4z"/>
		</g>
		<g id="leg-stitch-2">
			<path class="st18" d="M110.3,493.5c29.9,6.5,60.9,6.5,90.8,0"/>
			<path class="st20" d="M110.3,493.5c7.5,1.4,15,2.5,22.6,3.3s15.2,1.1,22.8,1.1s15.2-0.4,22.8-1.1c3.8-0.4,7.6-0.8,11.3-1.4
				c3.8-0.5,7.5-1.2,11.3-1.9c-3.7,0.9-7.4,1.7-11.2,2.4s-7.5,1.2-11.3,1.7c-7.6,0.9-15.2,1.3-22.9,1.4c-7.6,0-15.3-0.5-22.9-1.3
				c-3.8-0.4-7.6-1-11.3-1.7C117.7,495.1,114,494.4,110.3,493.5z"/>
		</g>
		<g id="zipper">
			<path class="st20" d="M199.5,380c-0.1,2.3-0.2,4.6-0.2,6.9s-0.1,4.6-0.1,6.8c0,4.6,0,9.1,0.3,13.7c0.1,2.3,0.3,4.5,0.6,6.8
				c0.2,2.2,0.7,4.4,1.5,6.6c1.7,4.2,4.3,8,7.7,11.1c-1.8-1.4-3.5-3-4.9-4.8s-2.6-3.9-3.5-6c-0.8-2.2-1.4-4.4-1.7-6.7
				c-0.3-2.3-0.5-4.6-0.7-6.9c-0.2-4.6-0.2-9.2-0.1-13.7S198.9,384.5,199.5,380z"/>
		</g>
		<g id="zipper-2">
			<path class="st20" d="M209.2,369.9c0.2,5.4,0.3,10.9,0.4,16.3s0.1,10.8,0.1,16.3s0,10.9-0.1,16.3l-0.1,8.1
				c-0.1,2.7-0.1,5.4-0.2,8.1c-0.1-2.7-0.2-5.4-0.2-8.1l-0.1-8.1c-0.1-5.4-0.1-10.9-0.1-16.3s0-10.8,0.1-16.3
				S209.1,375.4,209.2,369.9z"/>
		</g>
		<circle id="button" class="st21" cx="204" cy="375.5" r="4.5"/>
		<path id="belt-loop" class="st22" d="M173.6,367.4c0.5-0.2,1.1-0.3,1.7-0.3c0.5,0,1.1,0.2,1.6,0.4c0.2,2.2,0.2,4.5,0.1,6.7
			c-0.1,2.5-0.3,5-0.7,7.5c-0.6,0.2-1.3,0.3-1.9,0.3c-0.5-0.1-0.9-0.2-1.4-0.4c-0.2-2.5-0.3-5-0.1-7.4
			C172.9,371.9,173.2,369.6,173.6,367.4z"/>
		<path id="belt-loop-2" class="st22" d="M235.5,367.3c0.5-0.3,1.1-0.4,1.7-0.4c0.5,0,1.1,0.1,1.6,0.3c0.4,2.2,0.6,4.5,0.7,6.7
			c0.1,2.5,0.1,5-0.1,7.5c-1,0.5-2.2,0.6-3.3,0.1c-0.4-2.4-0.7-4.9-0.8-7.4C235.2,371.9,235.3,369.6,235.5,367.3z"/>
		<path id="belt-loop-3" class="st22" d="M276.4,365.7c1-0.5,2.2-0.5,3.3-0.1c0.3,2.2,0.6,4.5,0.7,6.7c0.1,2.5,0.1,5-0.1,7.5
			c-1,0.5-2.2,0.5-3.3,0.1C276.1,375.2,275.9,370.5,276.4,365.7z"/>
		<path id="belt-loop-4" class="st22" d="M138.6,366.1c1.1-0.4,2.2-0.3,3.3,0.1c0.4,4.7,0.2,9.5-0.6,14.2c-0.6,0.2-1.3,0.3-1.9,0.3
			c-0.5-0.1-0.9-0.2-1.4-0.4c-0.2-2.5-0.3-5-0.2-7.4C138,370.6,138.3,368.4,138.6,366.1z"/>
	</g>
	<g id="shirt">
		<path id="shirt-base" class="st23" d="M532.5,178.5L532.5,178.5c-0.5-18.5-1-37.1-1.5-55.6l-4.9-5.5c-12.9-15.6-16.2-37-8.7-55.8
			c-15.1-12.3-33.8-19.4-53.2-20.2c-3.6,7.4-11.1,12.2-19.4,12.4c-11.5,0-18.2-10.3-18.7-11.1c-18.5,0.3-36.5,6-51.8,16.4
			c7.8,19,5.2,40.7-7,57.3l-8,8l-1.7,56.1l-5.5,72c24.1,1.9,50,3.2,77.7,3.6c39,0.5,75-1,107.3-3.6
			C535.6,227.9,534,203.2,532.5,178.5z"/>
		<circle id="spot" class="st24" cx="399" cy="74" r="4.3"/>
		<circle id="spot-2" class="st24" cx="479.5" cy="73.8" r="4.3"/>
		<circle id="spot-3" class="st24" cx="412.3" cy="101.3" r="4.3"/>
		<circle id="spot-4" class="st24" cx="503.4" cy="122.5" r="4.3"/>
		<circle id="spot-5" class="st24" cx="384.8" cy="134.8" r="4.3"/>
		<circle id="spot-6" class="st24" cx="435.4" cy="141.6" r="4.3"/>
		<circle id="spot-7" class="st24" cx="453.9" cy="113.8" r="4.3"/>
		<circle id="spot-8" class="st24" cx="478.3" cy="159.4" r="4.3"/>
		<circle id="spot-9" class="st24" cx="408" cy="179.2" r="4.3"/>
		<circle id="spot-10" class="st24" cx="512" cy="202.2" r="4.3"/>
		<circle id="spot-11" class="st24" cx="453.9" cy="197.9" r="4.3"/>
		<circle id="spot-12" class="st24" cx="416.6" cy="213.7" r="4.3"/>
		<circle id="spot-13" class="st24" cx="376.1" cy="189.2" r="4.3"/>
		<circle id="spot-14" class="st24" cx="376.1" cy="230.9" r="4.3"/>
		<circle id="spot-15" class="st24" cx="458.3" cy="235.2" r="4.3"/>
		<circle id="spot-16" class="st24" cx="505.4" cy="230.9" r="4.3"/>
		
			<ellipse id="spot-17" transform="matrix(0.1602 -0.9871 0.9871 0.1602 262.1518 644.2174)" class="st24" cx="509.7" cy="168" rx="4.3" ry="4.3"/>
		<circle id="spot-18" class="st24" cx="449" cy="87.6" r="4.3"/>
		<path id="collar" class="st24" d="M420.1,42.9c0.9-0.2,1.9-0.3,2.8-0.3c1.1-0.1,2.2,0,3.3,0.1c1.3,1.5,2.7,2.8,4.1,4.1
			c1,0.9,2.1,1.8,3.2,2.6c5.2,3.4,10.2,2.4,11.1,4.7c0.2,0.8,0.1,1.6-0.4,2.2c-1.5,2.6-6.6,2.7-7.5,2.8
			C430.9,59.2,424.4,52.5,420.1,42.9z"/>
		<path id="collar-2" class="st24" d="M470.6,41.9c-2.1-0.8-4.3-0.9-6.4-0.5c-1.2,1.5-2.6,2.9-4,4.2c-1,0.9-2.1,1.8-3.2,2.7
			c-5.4,3.8-10.5,3.3-10.9,5.7c-0.1,0.5,0.1,1.1,0.3,1.5c1.5,3.1,7.2,3,8.1,3C463.6,58.4,470.4,42.6,470.6,41.9z"/>
	</g>
</g>
</svg>
